<svg xmlns="http://www.w3.org/2000/svg" width="16" height="16" viewBox="0 0 16 16">
  <path id="calendar" d="M14.667,16H1.333A1.335,1.335,0,0,1,0,14.667v-12A1.335,1.335,0,0,1,1.333,1.333H4.667V.667A.667.667,0,1,1,6,.667v.667h4V.667a.667.667,0,1,1,1.333,0v.667h3.333A1.335,1.335,0,0,1,16,2.667v12A1.335,1.335,0,0,1,14.667,16ZM11.333,2.667v.667a.667.667,0,1,1-1.333,0V2.667H6v.667a.667.667,0,0,1-1.333,0V2.667H1.333v12H14.665l0-12ZM12.667,12H11.333a.667.667,0,0,1-.667-.667V10a.667.667,0,0,1,.667-.667h1.333a.667.667,0,0,1,.667.667v1.333A.667.667,0,0,1,12.667,12Zm0-4H11.333a.667.667,0,0,1-.667-.667V6a.667.667,0,0,1,.667-.667h1.333A.667.667,0,0,1,13.333,6V7.333A.667.667,0,0,1,12.667,8Zm-4,4H7.333a.667.667,0,0,1-.667-.667V10a.667.667,0,0,1,.667-.667H8.667A.667.667,0,0,1,9.333,10v1.333A.667.667,0,0,1,8.667,12Zm0-4H7.333a.667.667,0,0,1-.667-.667V6a.667.667,0,0,1,.667-.667H8.667A.667.667,0,0,1,9.333,6V7.333A.667.667,0,0,1,8.667,8Zm-4,4H3.333a.667.667,0,0,1-.667-.667V10a.667.667,0,0,1,.667-.667H4.667A.667.667,0,0,1,5.333,10v1.333A.667.667,0,0,1,4.667,12Zm0-4H3.333a.667.667,0,0,1-.667-.667V6a.667.667,0,0,1,.667-.667H4.667A.667.667,0,0,1,5.333,6V7.333A.667.667,0,0,1,4.667,8Z" fill="#60daf2" fill-rule="evenodd"/>
</svg>
