<svg xmlns="http://www.w3.org/2000/svg" xmlns:xlink="http://www.w3.org/1999/xlink" width="17.999" height="10.412" viewBox="0 0 17.999 10.412">
  <defs>
    <linearGradient id="linear-gradient" x1="0.5" x2="0.048" y2="0.899" gradientUnits="objectBoundingBox">
      <stop offset="0" stop-color="#ff9100"/>
      <stop offset="1" stop-color="#ff3400"/>
    </linearGradient>
  </defs>
  <path id="camcorder" d="M-4612.991-1513.954a3.523,3.523,0,0,1-2.376-1.089,3.511,3.511,0,0,1-.97-2.427v-3.348a.457.457,0,0,1,.458-.458.458.458,0,0,1,.457.458v3.348a2.622,2.622,0,0,0,.722,1.795,2.617,2.617,0,0,0,1.756.81c1.484.01,4.613,0,6.686,0l1.815,0c.9,0,.9-.235.9-.348v-6.293a1.459,1.459,0,0,0-.453-1.1,4.146,4.146,0,0,0-2.739-.826h-9.147a.457.457,0,0,1-.458-.458.456.456,0,0,1,.458-.458h9.135a4.987,4.987,0,0,1,3.389,1.086,2.354,2.354,0,0,1,.63,1.031l2.909-1.615a.975.975,0,0,1,.5-.127.986.986,0,0,1,.493.139.992.992,0,0,1,.36.364.981.981,0,0,1,.13.495v7.445a.991.991,0,0,1-.239.646.994.994,0,0,1-.6.337,1,1,0,0,1-.677-.136l-2.771-1.708v1.176c0,.576-.316,1.263-1.818,1.263l-1.813,0c-1.133,0-2.583.006-3.913.006C-4611.274-1513.944-4612.3-1513.948-4612.991-1513.954Zm13.618-9.095-3.254,1.807v3.772l3.251,2a.069.069,0,0,0,.081,0,.075.075,0,0,0,.041-.069l0-7.44a.078.078,0,0,0-.041-.073.082.082,0,0,0-.04-.01A.075.075,0,0,0-4599.374-1523.048Zm-10.93,6.3a1.008,1.008,0,0,1-.711-.3,1,1,0,0,1-.289-.717l.035-2.783a1.006,1.006,0,0,1,.5-.86,1,1,0,0,1,1,0l.454.262c.658.377,1.434.824,2,1.154a1,1,0,0,1,.439.526,1,1,0,0,1,0,.686,1.006,1.006,0,0,1-.445.522c-.568.323-1.352.757-2.014,1.123l-.478.265a1.011,1.011,0,0,1-.484.126Zm0-3.871a.09.09,0,0,0-.045.079l-.035,2.783a.086.086,0,0,0,.045.081.073.073,0,0,0,.083,0l.476-.264c.661-.365,1.44-.8,2.008-1.118a.085.085,0,0,0,.044-.074.083.083,0,0,0-.044-.073c-.565-.33-1.343-.776-2-1.151l-.454-.261a.091.091,0,0,0-.042-.014A.09.09,0,0,0-4610.308-1520.62Z" transform="translate(4616.337 1524.357)" fill="url(#linear-gradient)"/>
</svg>
