<svg xmlns="http://www.w3.org/2000/svg" xmlns:xlink="http://www.w3.org/1999/xlink" width="12" height="12" viewBox="0 0 12 12">
  <defs>
    <linearGradient id="linear-gradient" x1="0.147" y1="0.764" x2="0.697" y2="0.045" gradientUnits="objectBoundingBox">
      <stop offset="0" stop-color="#e55252"/>
      <stop offset="1" stop-color="#fb8585"/>
    </linearGradient>
  </defs>
  <path id="cancel_icon" data-name="cancel icon" d="M97.056,23.332a.546.546,0,0,0-.388.162l-3.177,3.213a.546.546,0,0,0-.158.384V31.61A.546.546,0,0,0,93.5,32l3.213,3.177a.546.546,0,0,0,.384.158h4.519A.546.546,0,0,0,102,35.17l3.177-3.213a.546.546,0,0,0,.158-.384V27.054a.546.546,0,0,0-.162-.388l-3.213-3.177a.546.546,0,0,0-.384-.158Zm.228,1.091h4.066l2.892,2.859v4.066l-2.859,2.892H97.317l-2.892-2.859V27.314Zm-.223,2.091a.546.546,0,0,0-.38.936l1.882,1.882-1.882,1.882a.546.546,0,1,0,.771.771L99.334,30.1l1.882,1.882a.546.546,0,1,0,.771-.771l-1.882-1.882,1.882-1.882a.545.545,0,1,0-.771-.771l-1.882,1.882-1.882-1.882a.546.546,0,0,0-.391-.165Z" transform="translate(-93.334 -23.332)" fill="url(#linear-gradient)"/>
</svg>
