<svg xmlns="http://www.w3.org/2000/svg" width="16" height="15.76" viewBox="0 0 16 15.76">
  <path id="local-time" d="M142.985,68.963a6.649,6.649,0,0,1,4.627,11.424l1.927,2.463a.69.69,0,0,1-1.088.85l-1.924-2.46a6.652,6.652,0,0,1-7.084,0l-1.924,2.46a.69.69,0,0,1-1.088-.85l1.927-2.463a6.649,6.649,0,0,1,4.627-11.424Zm1.12,6.574h2.967v1.212H144.1a1.274,1.274,0,1,1-1.72-1.73V71.382H143.6v3.644a1.279,1.279,0,0,1,.508.511Zm6.494-6.093-.849-.849a1.322,1.322,0,0,0-1.865,0L146.877,69.6a7.552,7.552,0,0,1,2.614,2.813l1.108-1.108A1.323,1.323,0,0,0,150.6,69.443Zm-15.231,0,.848-.849a1.323,1.323,0,0,1,1.865,0l1.009,1.009a7.555,7.555,0,0,0-2.615,2.813l-1.108-1.108A1.323,1.323,0,0,1,135.369,69.443Zm7.616.9a5.264,5.264,0,1,0,5.264,5.264A5.264,5.264,0,0,0,142.984,70.348Z" transform="translate(-134.984 -68.21)" fill="#60daf2"/>
</svg>
