<svg xmlns="http://www.w3.org/2000/svg" xmlns:xlink="http://www.w3.org/1999/xlink" width="19.008" height="13.619" viewBox="0 0 19.008 13.619">
  <defs>
    <linearGradient id="linear-gradient" x1="0.817" y1="0.18" x2="0.195" y2="0.729" gradientUnits="objectBoundingBox">
      <stop offset="0" stop-color="#6ac90a"/>
      <stop offset="1" stop-color="#05db7e"/>
    </linearGradient>
  </defs>
  <path id="mec-live-now" d="M14.482,12.378a.584.584,0,0,1,0-.851,7.206,7.206,0,0,0,0-10.5.584.584,0,0,1,0-.851.647.647,0,0,1,.888,0,8.373,8.373,0,0,1,0,12.2.647.647,0,0,1-.888,0Zm-11.844,0a8.372,8.372,0,0,1,0-12.2.648.648,0,0,1,.889,0,.585.585,0,0,1,0,.851,7.2,7.2,0,0,0,0,10.5h0a.586.586,0,0,1,0,.852.648.648,0,0,1-.889,0ZM12.11,10.1a.584.584,0,0,1,0-.852,4.084,4.084,0,0,0,0-5.952.583.583,0,0,1,0-.851.647.647,0,0,1,.888,0,5.252,5.252,0,0,1,0,7.662.646.646,0,0,1-.888,0Zm-7.1,0a5.25,5.25,0,0,1,0-7.662.648.648,0,0,1,.889,0,.585.585,0,0,1,0,.852,4.08,4.08,0,0,0,0,5.951.585.585,0,0,1,0,.852.648.648,0,0,1-.889,0ZM7.232,7.69V4.865A1.046,1.046,0,0,1,8.8,4l2.552,1.411a.984.984,0,0,1,0,1.738L8.8,8.558a1.075,1.075,0,0,1-.524.137A1.026,1.026,0,0,1,7.232,7.69Z" transform="translate(0.5 0.564)" stroke="rgba(0,0,0,0)" stroke-miterlimit="10" stroke-width="1" fill="url(#linear-gradient)"/>
</svg>
