<svg xmlns="http://www.w3.org/2000/svg" xmlns:xlink="http://www.w3.org/1999/xlink" width="13" height="12.987" viewBox="0 0 13 12.987">
  <defs>
    <linearGradient id="linear-gradient" x1="0.5" x2="0.262" y2="0.886" gradientUnits="objectBoundingBox">
      <stop offset="0" stop-color="#82d612"/>
      <stop offset="1" stop-color="#58aa22"/>
    </linearGradient>
  </defs>
  <path id="ontime-icon" d="M134.925,55.107a.5.5,0,0,1-.707.007l-1.332-1.305a.5.5,0,0,1,.7-.717l1.332,1.305a.5.5,0,0,1,.008.708h0Zm-10.66-1.329a.5.5,0,0,0-.706-.706L122.227,54.4a.5.5,0,1,0,.681.731l.025-.025Zm7.729,10.349.929.932a.5.5,0,0,1-.682.729l-.025-.025-1.1-1.109a5.757,5.757,0,0,1-5.077,0l-1.1,1.11a.5.5,0,1,1-.732-.68l.025-.025.929-.932a5.827,5.827,0,1,1,6.841,0Zm-3.42.121a4.828,4.828,0,1,0-4.828-4.828,4.828,4.828,0,0,0,4.828,4.828Zm1.312-6.043-1.865,1.865-.759-.755a.5.5,0,0,0-.751.659.537.537,0,0,0,.045.045l1.11,1.11a.5.5,0,0,0,.7,0h0l2.22-2.22a.5.5,0,0,0-.706-.707Z" transform="translate(-122.068 -52.939)" fill="url(#linear-gradient)"/>
</svg>
