<svg xmlns="http://www.w3.org/2000/svg" width="15" height="15" viewBox="0 0 15 15">
  <path id="share1" d="M12.5,5a2.483,2.483,0,0,1-1.888-.879L4.938,6.959A2.41,2.41,0,0,1,4.95,7.993l5.665,2.884a2.44,2.44,0,1,1-.563,1.116L4.394,9.113a2.5,2.5,0,1,1-.031-3.264L10.051,3A2.5,2.5,0,1,1,12.5,5Zm0,8.75a1.25,1.25,0,1,0-1.25-1.25A1.251,1.251,0,0,0,12.5,13.75Zm-10-7.5A1.251,1.251,0,1,0,3.75,7.5,1.251,1.251,0,0,0,2.5,6.249Zm10-5A1.25,1.25,0,1,0,13.75,2.5,1.251,1.251,0,0,0,12.5,1.25Z" fill="#9e9da2" fill-rule="evenodd"/>
</svg>
