<svg xmlns="http://www.w3.org/2000/svg" width="16" height="16.636" viewBox="0 0 16 16.636">
  <path id="calendar-icon" d="M8.182,20.886H19.818A2.182,2.182,0,0,0,22,18.7V8.159a2.182,2.182,0,0,0-2.182-2.182H18.364v-1a.727.727,0,1,0-1.455,0v1H11.091v-1a.727.727,0,1,0-1.455,0v1H8.182A2.182,2.182,0,0,0,6,8.159V18.7A2.182,2.182,0,0,0,8.182,20.886Zm11.636-1.455H8.182a.727.727,0,0,1-.727-.727v-6H20.545v6A.727.727,0,0,1,19.818,19.432Zm-11.636-12H9.636V8.25a.727.727,0,1,0,1.455,0V7.432h5.818V8.25a.727.727,0,1,0,1.455,0V7.432h1.455a.727.727,0,0,1,.727.727V11.25H7.455V8.159A.727.727,0,0,1,8.182,7.432Z" transform="translate(-6 -4.25)" fill="#bec3c8"/>
</svg>
