<svg xmlns="http://www.w3.org/2000/svg" width="18.309" height="17.599" viewBox="0 0 18.309 17.599">
  <g id="discount-icon" transform="translate(1.151 0.87)">
    <path id="Path_13335" data-name="Path 13335" d="M123.586,53a3.575,3.575,0,0,1-.45-.792,3.753,3.753,0,0,1-.111-.95A2.45,2.45,0,0,0,121,48.48a2.354,2.354,0,0,1-1.487-1.08,2.441,2.441,0,0,0-3.256-1.076,2.507,2.507,0,0,1-1.917,0,3.126,3.126,0,0,0-1.824-.137,3.166,3.166,0,0,0-1.432,1.214,2.359,2.359,0,0,1-1.487,1.08,2.449,2.449,0,0,0-2.023,2.775,3.758,3.758,0,0,1-.112.95,3.572,3.572,0,0,1-.45.792,3.185,3.185,0,0,0-.717,1.754,3.187,3.187,0,0,0,.717,1.754,3.58,3.58,0,0,1,.45.792,3.76,3.76,0,0,1,.112.95,2.45,2.45,0,0,0,2.025,2.776,3.7,3.7,0,0,1,.858.393,3.64,3.64,0,0,1,.628.687,2.443,2.443,0,0,0,3.256,1.076,2.512,2.512,0,0,1,1.916,0,4.6,4.6,0,0,0,1.23.227,1.925,1.925,0,0,0,.594-.089,3.174,3.174,0,0,0,1.432-1.214,3.65,3.65,0,0,1,.628-.687,3.709,3.709,0,0,1,.859-.393,2.449,2.449,0,0,0,2.024-2.775,3.753,3.753,0,0,1,.112-.95,3.571,3.571,0,0,1,.451-.792,3.188,3.188,0,0,0,.717-1.754A3.185,3.185,0,0,0,123.586,53Zm-.953,2.865a4.441,4.441,0,0,0-.591,1.08,4.625,4.625,0,0,0-.167,1.26,2.314,2.314,0,0,1-.221,1.166,2.317,2.317,0,0,1-1.05.575,4.567,4.567,0,0,0-1.139.543,4.5,4.5,0,0,0-.857.908,1.389,1.389,0,0,1-2.038.679,3.572,3.572,0,0,0-2.541,0,1.389,1.389,0,0,1-2.038-.678,4.476,4.476,0,0,0-.858-.908A4.565,4.565,0,0,0,110,59.944a2.315,2.315,0,0,1-1.051-.576,2.308,2.308,0,0,1-.221-1.166,4.63,4.63,0,0,0-.167-1.259,4.415,4.415,0,0,0-.591-1.08,2.319,2.319,0,0,1-.521-1.111,2.32,2.32,0,0,1,.521-1.111,4.427,4.427,0,0,0,.591-1.08,4.613,4.613,0,0,0,.167-1.26,2.31,2.31,0,0,1,.222-1.166,2.317,2.317,0,0,1,1.049-.576,4.552,4.552,0,0,0,1.14-.543,4.5,4.5,0,0,0,.857-.908,1.389,1.389,0,0,1,2.038-.678,3.572,3.572,0,0,0,2.541,0,2.278,2.278,0,0,1,1.158-.15,2.31,2.31,0,0,1,.881.828,4.5,4.5,0,0,0,.857.908,4.583,4.583,0,0,0,1.139.543,2.314,2.314,0,0,1,1.05.575,2.308,2.308,0,0,1,.221,1.166,4.634,4.634,0,0,0,.167,1.26,4.429,4.429,0,0,0,.591,1.08,2.32,2.32,0,0,1,.521,1.111,2.317,2.317,0,0,1-.521,1.111Z" transform="translate(-107.296 -46.826)" fill="#bec3c8" stroke="#bec3c8" stroke-width="0.3"/>
    <path id="Path_13336" data-name="Path 13336" d="M248.183,171.3a.518.518,0,0,0-.732,0l-6.212,6.212a.518.518,0,1,0,.732.732l6.212-6.212a.518.518,0,0,0,0-.732Z" transform="translate(-236.601 -166.984)" fill="#bec3c8"/>
    <path id="Path_13337" data-name="Path 13337" d="M223.474,151.939a1.555,1.555,0,1,0-.455,1.1A1.553,1.553,0,0,0,223.474,151.939Zm-2.071,0a.518.518,0,1,1,.152.366A.517.517,0,0,1,221.4,151.939Z" transform="translate(-216.572 -146.916)" fill="#bec3c8"/>
    <path id="Path_13338" data-name="Path 13338" d="M387.845,316.31a1.555,1.555,0,1,0,1.1.455A1.553,1.553,0,0,0,387.845,316.31Zm0,2.071a.518.518,0,1,1,.366-.152.517.517,0,0,1-.366.152Z" transform="translate(-376.974 -307.318)" fill="#bec3c8"/>
  </g>
</svg>
