<svg xmlns="http://www.w3.org/2000/svg" width="16.3" height="14.523" viewBox="0 0 16.3 14.523">
  <path id="email-icon" d="M105.976,55.979a.533.533,0,0,0-.261.078l-7.467,4.622a.533.533,0,0,0-.25.455v8.533a.533.533,0,0,0,.533.533h14.933a.533.533,0,0,0,.533-.533V61.135a.533.533,0,0,0-.25-.455l-7.467-4.622a.534.534,0,0,0-.306-.078ZM106,57.14l6.933,4.289v7.705H99.065V61.429Zm-5.711,4.522a.533.533,0,0,0-.261.989l5.689,3.556a.533.533,0,0,0,.567,0l5.689-3.556a.534.534,0,0,0-.567-.906L106,65.123l-5.405-3.378a.535.535,0,0,0-.306-.083Z" transform="translate(-97.848 -55.828)" fill="#bec3c8" stroke="#bec3c8" stroke-width="0.3"/>
</svg>
