<svg xmlns="http://www.w3.org/2000/svg" width="10.833" height="13" viewBox="0 0 10.833 13">
  <path id="lock-icon" d="M-12066.793-3092h-7.583a1.627,1.627,0,0,1-1.625-1.625v-5.417a1.627,1.627,0,0,1,1.625-1.625v-.542a3.8,3.8,0,0,1,3.792-3.792,3.8,3.8,0,0,1,3.791,3.792v.542a1.627,1.627,0,0,1,1.625,1.625v5.417A1.627,1.627,0,0,1-12066.793-3092Zm-7.583-7.583a.542.542,0,0,0-.541.542v5.417a.542.542,0,0,0,.541.542h7.583a.542.542,0,0,0,.542-.542v-5.417a.542.542,0,0,0-.542-.542Zm3.792-4.333a2.712,2.712,0,0,0-2.709,2.708v.542h5.417v-.542A2.711,2.711,0,0,0-12070.584-3103.917Zm-.045,9.479a.457.457,0,0,1-.455-.458v-1.5a.911.911,0,0,1-.416-1.021.916.916,0,0,1,.871-.677.916.916,0,0,1,.874.677.917.917,0,0,1-.416,1.021v1.5A.459.459,0,0,1-12070.629-3094.438Z" transform="translate(12076.001 3105.001)" fill="#bec3c8"/>
</svg>
