<svg xmlns="http://www.w3.org/2000/svg" width="20" height="13.333" viewBox="0 0 20 13.333">
  <path id="pay-locally-icon" d="M142.5,140h15a2.5,2.5,0,0,1,2.5,2.5v8.333a2.5,2.5,0,0,1-2.5,2.5h-15a2.5,2.5,0,0,1-2.5-2.5V142.5A2.5,2.5,0,0,1,142.5,140Zm0,1.667a.833.833,0,0,0-.833.833v8.333a.833.833,0,0,0,.833.833h15a.833.833,0,0,0,.833-.833V142.5a.833.833,0,0,0-.833-.833Zm7.722,1.083a.553.553,0,0,0-.589.508v.207a2.257,2.257,0,0,0-1.591.843,1.419,1.419,0,0,0-.1,1.576,2.141,2.141,0,0,0,1.053.874,3.9,3.9,0,0,0,.635.187v1.861a.74.74,0,0,1-.31-.209.884.884,0,0,1-.2-.568.6.6,0,0,0-1.179,0,1.807,1.807,0,0,0,.438,1.18,2.055,2.055,0,0,0,1.252.651v.215a.6.6,0,0,0,1.179,0v-.228a2.216,2.216,0,0,0,1.453-.814,1.533,1.533,0,0,0,.2-1.532,2.278,2.278,0,0,0-.973-1.085,2.952,2.952,0,0,0-.676-.268v-1.566a.809.809,0,0,1,.228.178.864.864,0,0,1,.216.542.6.6,0,0,0,1.179,0,1.791,1.791,0,0,0-.46-1.162,2.113,2.113,0,0,0-1.163-.643v-.24A.553.553,0,0,0,150.222,142.75Zm-1.18,2.1a.96.96,0,0,1,.59-.345v1.386c-.045-.014-.088-.03-.13-.047a1.027,1.027,0,0,1-.519-.436.523.523,0,0,1,.059-.558Zm1.769,3.949v-1.544l.03.016a1.235,1.235,0,0,1,.523.609.636.636,0,0,1-.094.61.9.9,0,0,1-.459.309Zm5.855-1.962a1,1,0,1,1-1-1A1,1,0,0,1,156.666,146.833Zm-12.333,1a1,1,0,1,0-1-1A1,1,0,0,0,144.333,147.833Z" transform="translate(-140 -140)" fill="#bec3c8" fill-rule="evenodd"/>
</svg>
