<svg xmlns="http://www.w3.org/2000/svg" width="17" height="17.062" viewBox="0 0 17 17.062">
  <path id="paypal-icon" d="M7.833,5l-.139.58L4.959,18.19l-.209.9H8.366l-.44,2.063-.209.9h5.17l.116-.6.765-3.57h1.994a5.892,5.892,0,0,0,5.865-4.729,4.311,4.311,0,0,0-.742-3.709,4.073,4.073,0,0,0-2.2-1.345,3.791,3.791,0,0,0-.95-1.831A4.312,4.312,0,0,0,14.625,5ZM9.039,6.484h5.587a2.911,2.911,0,0,1,2.04.811A2.609,2.609,0,0,1,17.2,9.868a4.3,4.3,0,0,1-4.4,3.57h-3.2l-.116.58-.765,3.593H6.6Zm1.878,1.09-.139.58-.765,3.431-.209.9h2.62A2.925,2.925,0,0,0,15.2,10.239h.023c0-.014,0-.032,0-.046a2.173,2.173,0,0,0-.3-1.808,2.043,2.043,0,0,0-1.646-.811ZM12.1,9.057h1.182a.483.483,0,0,1,.44.185.68.68,0,0,1,.07.6v.023A1.627,1.627,0,0,1,12.423,11h-.765Zm6.63.649a2.515,2.515,0,0,1,1.02.7,2.674,2.674,0,0,1,.417,2.434,4.3,4.3,0,0,1-4.4,3.57h-3.2l-.116.58-.765,3.593H9.572L9.9,19.094H9.92l.116-.6.765-3.57h1.994a5.892,5.892,0,0,0,5.865-4.729C18.694,10.025,18.708,9.868,18.729,9.706Z" transform="translate(-4.75 -5)" fill="#bec3c8"/>
</svg>
