<svg xmlns="http://www.w3.org/2000/svg" width="19.999" height="20.001" viewBox="0 0 19.999 20.001">
  <path id="stripe-icon" d="M-343.48-5445.294h-7.04a6.488,6.488,0,0,1-6.479-6.481v-7.039a6.488,6.488,0,0,1,6.479-6.481h7.04a6.487,6.487,0,0,1,6.479,6.481v7.039A6.487,6.487,0,0,1-343.48-5445.294Zm-7.312-8.061h0v2.886a8.529,8.529,0,0,0,3.348.688c2.656,0,4.305-1.32,4.305-3.444.013-2.223-1.809-2.831-3.139-3.275-.848-.284-1.515-.507-1.515-1.023,0-.45.36-.688,1.04-.688a7,7,0,0,1,3.049.778v-2.817a8.18,8.18,0,0,0-2.957-.551h-.085c-2.556,0-4.144,1.32-4.144,3.444,0,2.02,1.686,2.62,3.042,3.1.869.309,1.618.575,1.618,1.149,0,.5-.383.737-1.171.737a7.824,7.824,0,0,1-3.391-.985Z" transform="translate(356.999 5465.295)" fill="#bec3c8"/>
</svg>
