<svg xmlns="http://www.w3.org/2000/svg" xmlns:xlink="http://www.w3.org/1999/xlink" width="55.144" height="42.166" viewBox="0 0 55.144 42.166">
  <defs>
    <clipPath id="clip-path">
      <rect id="Rectangle_2137" data-name="Rectangle 2137" width="50" height="34" transform="translate(186 290.6)" fill="#fff"/>
    </clipPath>
  </defs>
  <g id="ticket-icon" transform="translate(-169.428 -298)">
    <path id="Path_13334" data-name="Path 13334" d="M0,0H43V6a2,2,0,0,1-2,2L0,10.412Z" transform="translate(176 329)" fill="#e6e7e8"/>
    <g id="ticket-icon-2" data-name="ticket-icon" transform="matrix(0.985, -0.174, 0.174, 0.985, -64.208, 52.796)" clip-path="url(#clip-path)">
      <g id="icon_8" transform="translate(187.268 292.268)">
        <path id="Path_17" data-name="Path 17" d="M745.047,3291.206a6.2,6.2,0,0,1,0-12.4v-9.3H697.5v9.3a6.2,6.2,0,0,1,0,12.4v9.3h47.547Z" transform="translate(-697.5 -3269.5)" fill="#fff" stroke="#7b7e84" stroke-linecap="round" stroke-linejoin="round" stroke-width="1.7"/>
        <g id="Group_13" data-name="Group 13" transform="translate(36.177 3.101)">
          <path id="Path_18" data-name="Path 18" d="M717.067,3271H715v2.068h2.067V3271Z" transform="translate(-715 -3270.998)" fill="none"/>
        </g>
        <g id="Group_14" data-name="Group 14" transform="translate(36.177 7.235)">
          <path id="Path_19" data-name="Path 19" d="M717.067,3273H715v2.067h2.067V3273Z" transform="translate(-715 -3273)" fill="none"/>
        </g>
        <line id="Line_20" data-name="Line 20" y2="30.747" transform="translate(36.928 0.158)" fill="none" stroke="#7b7e84" stroke-width="1" stroke-dasharray="2 2"/>
        <g id="Group_65624" data-name="Group 65624" transform="translate(10.619 11.769)">
          <line id="Line_18" data-name="Line 18" y1="0.117" x2="21.554" fill="none" stroke="#38d5ed" stroke-linecap="round" stroke-linejoin="round" stroke-width="2"/>
          <line id="Line_21" data-name="Line 21" y1="0.117" x2="21.554" transform="translate(0 7.352)" fill="none" stroke="#38d5ed" stroke-linecap="round" stroke-linejoin="round" stroke-width="2"/>
        </g>
      </g>
    </g>
  </g>
</svg>
