<svg xmlns="http://www.w3.org/2000/svg" width="13.556" height="18.016" viewBox="0 0 13.556 18.016">
  <g id="user-icon" transform="translate(-189.047 -66.078)">
    <path id="Path_13344" data-name="Path 13344" d="M200.481,291.469H191.17a2.123,2.123,0,0,1-2.123-2.123v-.88a5.9,5.9,0,0,1,5.9-5.9h1.764a5.9,5.9,0,0,1,5.9,5.9v.88a2.123,2.123,0,0,1-2.123,2.123Zm-5.538-7.483a4.481,4.481,0,0,0-4.481,4.481v.88a.708.708,0,0,0,.708.708h9.311a.708.708,0,0,0,.708-.708v-.88a4.481,4.481,0,0,0-4.481-4.481Z" transform="translate(0 -207.374)" fill="#bdc3c7"/>
    <path id="Path_13345" data-name="Path 13345" d="M254.249,74.5a4.215,4.215,0,1,1,2.975-1.234,4.21,4.21,0,0,1-2.975,1.234Zm0-7a2.8,2.8,0,1,0,1.975.822,2.795,2.795,0,0,0-1.975-.822Z" transform="translate(-58.423)" fill="#bdc3c7"/>
  </g>
</svg>
